<svg width="50" height="50" viewBox="0 0 50 50" fill="none" xmlns="http://www.w3.org/2000/svg">
<path d="M23.0176 6.98256H10.5176C6.37544 6.98256 3.01758 10.3404 3.01758 14.4826V39.4828C3.01758 43.6249 6.37544 46.9828 10.5176 46.9828H35.5176C39.6597 46.9828 43.0176 43.6249 43.0176 39.4828L43.0176 26.9827M15.5176 34.4826L24.6134 32.6498C25.0962 32.5525 25.5396 32.3147 25.8878 31.9663L46.2496 11.5934C47.2259 10.6166 47.2252 9.03326 46.2482 8.0573L41.9348 3.74881C40.9581 2.77325 39.3756 2.77392 38.3998 3.7503L18.0358 24.1254C17.6883 24.4731 17.451 24.9156 17.3536 25.3975L15.5176 34.4826Z" stroke="white" stroke-width="5" stroke-linecap="round" stroke-linejoin="round"/>
</svg>
