<svg width="18" height="18" viewBox="0 0 18 18" fill="none" xmlns="http://www.w3.org/2000/svg">
<path d="M9 13V13.0352M7.00087 6.53777C7.00087 5.41234 7.8963 4.5 9.00087 4.5C10.1054 4.5 11.0009 5.41234 11.0009 6.53777C11.0009 7.6632 10.1054 8.57555 9.00087 8.57555C9.00087 8.57555 9 9.18378 9 9.93406M17 4L17 14.0001C17 15.6569 15.6569 17.0001 14 17.0001H4C2.34315 17.0001 1 15.6569 1 14.0001V4C1 2.34315 2.34315 1 4 1H14C15.6569 1 17 2.34315 17 4Z" stroke="white" stroke-width="2" stroke-linecap="round" stroke-linejoin="round"/>
</svg>
