<svg width="20" height="20" viewBox="0 0 20 20" fill="none" xmlns="http://www.w3.org/2000/svg">
<path d="M7.29652 3.54618L8.30602 2.09545C8.49297 1.82679 8.79955 1.66663 9.12685 1.66663H10.4573C10.7834 1.66663 11.089 1.82561 11.2762 2.09262L12.2745 3.51689M7.29652 3.54618C7.00748 3.95855 6.52702 4.16062 6.01707 4.12459M7.29652 3.54618C7.00607 3.95756 6.52702 4.16229 6.01707 4.12459M6.01707 4.12459L4.22798 4.01227C3.90714 3.99213 3.59617 4.12746 3.39225 4.37599L2.55379 5.39788C2.33759 5.66137 2.27048 6.01684 2.37575 6.34102L2.89413 7.93749M2.89413 7.93749C2.96823 8.17777 2.97771 8.43518 2.92468 8.6783M2.89413 7.93749C2.96929 8.17734 2.97842 8.43424 2.92433 8.68079M2.92468 8.6783C2.87095 8.91853 2.75575 9.14537 2.58471 9.32906M2.92468 8.6783L2.92433 8.68079M2.58471 9.32906L1.40725 10.5954C1.17885 10.8411 1.08882 11.1849 1.1675 11.511L1.46105 12.7274C1.53947 13.0524 1.77512 13.3167 2.08902 13.4317L3.70682 14.0247C3.94424 14.1166 4.14934 14.2659 4.30458 14.454M2.58471 9.32906C2.7568 9.14688 2.87095 8.92077 2.92433 8.68079M4.30458 14.454C4.45876 14.6427 4.56377 14.8704 4.60451 15.1169M4.30458 14.454C4.46016 14.6427 4.56553 14.8698 4.60451 15.1169M4.30458 14.454L4.30212 14.4513C4.29194 14.439 4.28105 14.4261 4.27051 14.4141M4.60451 15.1169L4.88004 16.8094C4.9333 17.1366 5.14526 17.4161 5.44593 17.5557L6.64518 18.1125C6.93625 18.2476 7.27449 18.2349 7.55454 18.0782L9.07504 17.2275M9.07504 17.2275C9.29595 17.1034 9.5425 17.0412 9.78905 17.0409M9.07504 17.2275C9.16249 17.1778 9.25416 17.138 9.34828 17.1082C9.49122 17.0629 9.64013 17.0406 9.78905 17.0409M9.78905 17.0409C9.91724 17.0412 10.0454 17.0581 10.1705 17.0916C10.2867 17.1228 10.3998 17.1681 10.5069 17.2275M9.78905 17.0409C10.0366 17.0406 10.2846 17.1028 10.5069 17.2275M10.5069 17.2275L12.1019 18.0909C12.3831 18.2432 12.7203 18.2517 13.0089 18.1139L14.2026 17.5438C14.5022 17.4007 14.7113 17.1182 14.7605 16.7899L15.0069 15.1483M15.0069 15.1483C15.0459 14.9003 15.1495 14.6709 15.3034 14.4806M15.0069 15.1483C15.0445 14.8998 15.1488 14.6707 15.3034 14.4806M15.3034 14.4806C15.4561 14.2923 15.6588 14.1422 15.8948 14.0494M15.3034 14.4806C15.4558 14.2915 15.6577 14.141 15.8948 14.0494M15.8948 14.0494L17.5319 13.4078C17.8399 13.2871 18.0683 13.0219 18.1419 12.6994L18.4241 11.4639C18.4976 11.1423 18.4077 10.8051 18.1839 10.5627L16.9976 9.27826M16.9976 9.27826C16.8234 9.09393 16.7019 8.87375 16.6429 8.63974M16.9976 9.27826C16.9158 9.19217 16.8455 9.09806 16.7883 8.99827C16.7229 8.88496 16.6741 8.76434 16.6429 8.63974M16.6429 8.63974C16.5849 8.4074 16.5884 8.1612 16.6618 7.9229L17.1739 6.28163C17.2743 5.95983 17.2058 5.6091 16.9917 5.34872L16.1767 4.35743C15.9704 4.10654 15.6551 3.97146 15.3312 3.99519L13.5645 4.12459M13.5645 4.12459C13.311 4.1425 13.0616 4.09419 12.8396 3.99028M13.5645 4.12459C13.3106 4.14353 13.0616 4.09483 12.8396 3.99028M12.8396 3.99028C12.6163 3.88504 12.4203 3.72321 12.2745 3.51689M12.8396 3.99028C12.6159 3.88543 12.4196 3.72403 12.2745 3.51689M2.92433 8.68079L2.92503 8.67714M12.6131 10.0088C12.6131 11.5629 11.3249 12.8228 9.73601 12.8228C8.14715 12.8228 6.85892 11.5629 6.85892 10.0088C6.85892 8.45468 8.14715 7.19484 9.73601 7.19484C11.3249 7.19484 12.6131 8.45468 12.6131 10.0088Z" stroke="white" stroke-width="2"/>
</svg>
