<svg width="17" height="17" viewBox="0 0 17 17" fill="none" xmlns="http://www.w3.org/2000/svg">
<path d="M11.1971 5.36248C11.1971 7.16425 10.0529 8.47987 8.64138 8.47987C7.2299 8.47987 6.08566 7.16425 6.08566 5.36248C6.08566 3.56072 7.2299 2.1001 8.64138 2.1001C10.0529 2.1001 11.1971 3.56072 11.1971 5.36248Z" stroke="white" stroke-width="2" stroke-linejoin="round"/>
<path d="M3.43356 11.0898C3.61677 10.7557 3.953 10.5503 4.31659 10.5503H12.6836C13.0472 10.5503 13.3834 10.7557 13.5666 11.0898L14.7593 13.2647C15.1569 13.9897 14.6653 14.9001 13.8763 14.9001H3.12392C2.33493 14.9001 1.84334 13.9897 2.24089 13.2647L3.43356 11.0898Z" stroke="white" stroke-width="2" stroke-linejoin="round"/>
</svg>
